<svg xmlns="http://www.w3.org/2000/svg" version="1.1" xmlns:xlink="http://www.w3.org/1999/xlink" xmlns:svgjs="http://svgjs.dev/svgjs" width="2000" height="1500" viewBox="0 0 2000 1500"><rect width="2000" height="1500" fill="#000000"></rect><g transform="matrix(0.75,0,0,0.75,249.090909090909,282.7536437246963)"><svg viewBox="0 0 396 247" data-background-color="#ffffff" preserveAspectRatio="xMidYMid meet" height="1247" width="2000" xmlns="http://www.w3.org/2000/svg" xmlns:xlink="http://www.w3.org/1999/xlink"><g id="tight-bounds" transform="matrix(1,0,0,1,0.2400000000000091,-0.09999999999999432)"><svg viewBox="0 0 395.52 247.2" height="247.2" width="395.52"><g><svg></svg></g><g><svg viewBox="0 0 395.52 247.2" height="247.2" width="395.52"><g transform="matrix(1,0,0,1,75.54432,76.18916880482897)"><svg viewBox="0 0 244.43135999999998 94.82166239034206" height="94.82166239034206" width="244.43135999999998"><g><svg viewBox="0 0 244.43135999999998 94.82166239034206" height="94.82166239034206" width="244.43135999999998"><g><svg viewBox="0 0 244.43135999999998 94.82166239034206" height="94.82166239034206" width="244.43135999999998"><g><svg viewBox="0 0 244.43135999999998 94.82166239034206" height="94.82166239034206" width="244.43135999999998"><g id="textblocktransform"><svg viewBox="0 0 244.43135999999998 94.82166239034206" height="94.82166239034206" width="244.43135999999998" id="textblock"><g><svg viewBox="0 0 244.43135999999998 94.82166239034206" height="94.82166239034206" width="244.43135999999998"><g transform="matrix(1,0,0,1,0,0)"><svg width="244.43135999999998" viewBox="3.75 -38.8 124.04 48.199999999999996" height="94.82166239034206" data-palette-color="#636365"><path d="M13.8-4.5L12.95 0.5Q10.25 0.45 8.47-0.1 6.7-0.65 5.65-1.68 4.6-2.7 4.17-4.23 3.75-5.75 3.75-7.7L3.75-7.7 3.75-37.8 9.8-38.8 9.8-8.85Q9.8-7.75 9.98-7 10.15-6.25 10.6-5.73 11.05-5.2 11.83-4.93 12.6-4.65 13.8-4.5L13.8-4.5ZM42.35-13.1L42.35-13.1Q42.35-10 41.45-7.45 40.55-4.9 38.9-3.1 37.25-1.3 34.92-0.3 32.6 0.7 29.8 0.7L29.8 0.7Q27 0.7 24.7-0.3 22.4-1.3 20.75-3.1 19.1-4.9 18.17-7.45 17.25-10 17.25-13.1L17.25-13.1Q17.25-16.2 18.17-18.73 19.1-21.25 20.77-23.05 22.45-24.85 24.75-25.83 27.05-26.8 29.8-26.8L29.8-26.8Q32.55-26.8 34.87-25.83 37.2-24.85 38.85-23.05 40.5-21.25 41.42-18.73 42.35-16.2 42.35-13.1ZM36.15-13.1L36.15-13.1Q36.15-17 34.47-19.28 32.8-21.55 29.8-21.55L29.8-21.55Q26.8-21.55 25.12-19.28 23.45-17 23.45-13.1L23.45-13.1Q23.45-9.15 25.12-6.85 26.8-4.55 29.8-4.55L29.8-4.55Q32.8-4.55 34.47-6.85 36.15-9.15 36.15-13.1ZM53.35-13.75L53.35-13.75Q53.35-9.9 55.02-8.13 56.7-6.35 59.35-6.35L59.35-6.35Q60.8-6.35 62.07-6.75 63.35-7.15 64.15-7.7L64.15-7.7 64.15-21.25Q63.5-21.4 62.55-21.53 61.6-21.65 60.15-21.65L60.15-21.65Q56.85-21.65 55.1-19.48 53.35-17.3 53.35-13.75ZM70.2-25.3L70.2-2.65Q70.2 3.6 67.02 6.5 63.85 9.4 57.3 9.4L57.3 9.4Q54.9 9.4 52.62 9 50.35 8.6 48.5 7.95L48.5 7.95 49.6 2.8Q51.15 3.45 53.12 3.85 55.1 4.25 57.4 4.25L57.4 4.25Q61.05 4.25 62.6 2.75 64.15 1.25 64.15-1.7L64.15-1.7 64.15-2.7Q63.25-2.25 61.77-1.8 60.3-1.35 58.4-1.35L58.4-1.35Q55.9-1.35 53.82-2.15 51.75-2.95 50.27-4.5 48.8-6.05 47.97-8.38 47.15-10.7 47.15-13.75L47.15-13.75Q47.15-16.6 48.02-19 48.9-21.4 50.57-23.1 52.25-24.8 54.65-25.75 57.05-26.7 60.1-26.7L60.1-26.7Q63.05-26.7 65.7-26.25 68.34-25.8 70.2-25.3L70.2-25.3ZM88.54-38.8L88.54-38.8Q90.64-38.8 92.24-38.43 93.84-38.05 94.64-37.75L94.64-37.75 93.49-32.75Q92.64-33.15 91.52-33.4 90.39-33.65 89.09-33.65L89.09-33.65Q87.64-33.65 86.64-33.23 85.64-32.8 85.04-32.05 84.44-31.3 84.19-30.23 83.94-29.15 83.94-27.9L83.94-27.9 83.94-26.15 93.44-26.15 93.44-21.1 83.94-21.1 83.94 0 77.89 0 77.89-28Q77.89-33.05 80.54-35.93 83.19-38.8 88.54-38.8ZM103.99-26.15L103.99 0 97.94 0 97.94-26.15 103.99-26.15ZM104.64-33.8L104.64-33.8Q104.64-32.1 103.54-31.1 102.44-30.1 100.94-30.1L100.94-30.1Q99.39-30.1 98.29-31.1 97.19-32.1 97.19-33.8L97.19-33.8Q97.19-35.55 98.29-36.55 99.39-37.55 100.94-37.55L100.94-37.55Q102.44-37.55 103.54-36.55 104.64-35.55 104.64-33.8ZM111.39-10.4L111.39-33.05 117.44-34.05 117.44-26.15 126.74-26.15 126.74-21.1 117.44-21.1 117.44-10.45Q117.44-7.3 118.44-5.95 119.44-4.6 121.84-4.6L121.84-4.6Q123.49-4.6 124.76-4.95 126.04-5.3 126.79-5.6L126.79-5.6 127.79-0.8Q126.74-0.35 125.04 0.13 123.34 0.6 121.04 0.6L121.04 0.6Q118.24 0.6 116.36-0.15 114.49-0.9 113.39-2.33 112.29-3.75 111.84-5.78 111.39-7.8 111.39-10.4L111.39-10.4Z" opacity="1" transform="matrix(1,0,0,1,0,0)" fill="#ffffff" class="wordmark-text-0" data-fill-palette-color="primary" id="text-0"></path></svg></g></svg></g></svg></g></svg></g><g></g></svg></g></svg></g></svg></g><g><path d="M97.435 53.804A122.216 122.216 0 0 1 298.085 53.804L289.534 53.804A113.665 113.665 0 0 0 105.986 53.804L97.435 53.804M97.435 193.396A122.216 122.216 0 0 0 298.085 193.396L289.534 193.396A113.665 113.665 0 0 1 105.986 193.396L97.435 193.396" fill="#ffffff" stroke="transparent" data-fill-palette-color="tertiary"></path></g></svg></g><defs></defs></svg><rect width="395.52" height="247.2" fill="none" stroke="none" visibility="hidden"></rect></g></svg></g></svg>