<svg xmlns="http://www.w3.org/2000/svg" version="1.1" xmlns:xlink="http://www.w3.org/1999/xlink" xmlns:svgjs="http://svgjs.dev/svgjs" width="128" height="128" viewBox="0 0 128 128"><g transform="matrix(0.8046875,0,0,0.8046875,12.333870967741937,12.333870967741937)"><svg viewBox="0 0 155 155" data-background-color="#ffffff" preserveAspectRatio="xMidYMid meet" height="128" width="128" xmlns="http://www.w3.org/2000/svg" xmlns:xlink="http://www.w3.org/1999/xlink"><g id="tight-bounds" transform="matrix(1,0,0,1,0.25,0.25)"><svg viewBox="0 0 154.5 154.5" height="154.5" width="154.5"><g><svg></svg></g><g><svg viewBox="0 0 154.5 154.5" height="154.5" width="154.5"><g transform="matrix(1,0,0,1,69.70517884351145,47.746370999999996)"><svg viewBox="0 0 15.089642312977098 59.007258" height="59.007258" width="15.089642312977098"><g><svg viewBox="0 0 15.089642312977098 59.007258" height="59.007258" width="15.089642312977098"><g><svg viewBox="0 0 15.089642312977098 59.007258" height="59.007258" width="15.089642312977098"><g id="textblocktransform"><svg viewBox="0 0 15.089642312977098 59.007258" height="59.007258" width="15.089642312977098" id="textblock"><g><svg viewBox="0 0 15.089642312977098 59.007258" height="59.007258" width="15.089642312977098"><g transform="matrix(1,0,0,1,0,0)"><svg width="15.089642312977098" viewBox="3.75 -38.8 10.05 39.3" height="59.007258" data-palette-color="#636365"><path d="M13.8-4.5L12.95 0.5Q10.25 0.45 8.47-0.1 6.7-0.65 5.65-1.68 4.6-2.7 4.17-4.23 3.75-5.75 3.75-7.7L3.75-7.7 3.75-37.8 9.8-38.8 9.8-8.85Q9.8-7.75 9.98-7 10.15-6.25 10.6-5.73 11.05-5.2 11.83-4.93 12.6-4.65 13.8-4.5L13.8-4.5Z" opacity="1" transform="matrix(1,0,0,1,0,0)" fill="#636365" class="wordmark-text-0" data-fill-palette-color="primary" id="text-0"></path></svg></g></svg></g></svg></g></svg></g><g></g></svg></g></svg></g><g><path d="M47.409 33.816A7.545 7.545 0 0 1 107.091 33.816L101.769 33.816A2.223 2.223 0 0 0 52.731 33.816L47.409 33.816M47.409 120.684A7.545 7.545 0 0 0 107.091 120.684L101.769 120.684A2.223 2.223 0 0 1 52.731 120.684L47.409 120.684" fill="#636365" stroke="transparent" data-fill-palette-color="tertiary"></path></g></svg></g><defs></defs></svg><rect width="154.5" height="154.5" fill="none" stroke="none" visibility="hidden"></rect></g></svg></g></svg>